<?xml version="1.0" encoding="UTF-8"?>
<!DOCTYPE svg PUBLIC "-//W3C//DTD SVG 1.1//EN" "http://www.w3.org/Graphics/SVG/1.1/DTD/svg11.dtd">
<!-- Creator: CorelDRAW (OEM Version) -->
<svg xmlns="http://www.w3.org/2000/svg" xml:space="preserve" width="24px" height="21px" version="1.1" style="shape-rendering:geometricPrecision; text-rendering:geometricPrecision; image-rendering:optimizeQuality; fill-rule:evenodd; clip-rule:evenodd"
viewBox="0 0 0.49 0.43"
 xmlns:xlink="http://www.w3.org/1999/xlink"
 xmlns:xodm="http://www.corel.com/coreldraw/odm/2003">
 <defs>
  <style type="text/css">
   <![CDATA[
    .fil0 {fill:black}
   ]]>
  </style>
 </defs>
 <g id="Layer_x0020_1">
  <metadata id="CorelCorpID_0Corel-Layer"/>
  <path class="fil0" d="M0.29 0.3c-0.05,0.02 -0.14,0.09 -0.2,0.05 -0.04,-0.04 -0.02,-0.14 0,-0.19 0.08,-0.15 0.23,-0.13 0.2,0.14zm0.19 -0.18c0.01,-0.02 0.01,-0.02 0.01,-0.04l-0.07 0.01 -0.01 0.03c-0.01,0.06 -0.05,0.1 -0.06,0.12 0,-0.05 0,-0.1 -0.02,-0.15 -0.05,-0.14 -0.24,-0.11 -0.3,0.04 -0.04,0.08 -0.05,0.21 0.02,0.27 0.09,0.08 0.19,-0.01 0.26,-0.03 0.06,0.06 0.1,0.08 0.18,0l-0.04 -0.04c-0.04,0.01 -0.05,0.04 -0.08,0.01 -0.02,-0.04 0.08,-0.1 0.11,-0.22z"/>
 </g>
</svg>
