<?xml version="1.0" encoding="UTF-8"?>
<!DOCTYPE svg PUBLIC "-//W3C//DTD SVG 1.1//EN" "http://www.w3.org/Graphics/SVG/1.1/DTD/svg11.dtd">
<!-- Creator: CorelDRAW (OEM Version) -->
<svg xmlns="http://www.w3.org/2000/svg" xml:space="preserve" width="30px" height="33px" version="1.1" style="shape-rendering:geometricPrecision; text-rendering:geometricPrecision; image-rendering:optimizeQuality; fill-rule:evenodd; clip-rule:evenodd"
viewBox="0 0 12.92 14"
 xmlns:xlink="http://www.w3.org/1999/xlink"
 xmlns:xodm="http://www.corel.com/coreldraw/odm/2003">
 <defs>
  <style type="text/css">
   <![CDATA[
    .fil1 {fill:#FEFEFE}
    .fil0 {fill:#242526}
   ]]>
  </style>
 </defs>
 <g id="Layer_x0020_1">
  <metadata id="CorelCorpID_0Corel-Layer"/>
  <g id="_2362836979168">
   <g>
    <path class="fil0" d="M11.26 7.93c0,0 0,0 0,0l0 0zm-11.23 1.43c0.11,1.02 0.68,1.69 1.26,2.09 0.34,0.24 1.63,0.95 2.12,1.24 0.48,0.28 1.73,1.03 2.19,1.17 1.1,0.33 1.84,0.01 2.64,-0.45l3.2 -1.85c0.36,-0.2 0.67,-0.48 0.89,-0.78 0.64,-0.89 0.57,-1.55 0.57,-2.8 0,-0.56 0,-1.11 0,-1.67 0,-1.11 0.14,-1.99 -0.46,-2.92 -0.43,-0.66 -0.75,-0.8 -1.35,-1.16l-2.67 -1.54c-0.83,-0.47 -1.48,-0.86 -2.59,-0.62 -0.69,0.16 -1.6,0.78 -2.23,1.13 -0.36,0.21 -0.7,0.41 -1.06,0.62 -0.76,0.44 -1.52,0.78 -1.95,1.4 -0.66,0.94 -0.58,1.5 -0.58,2.8 0,0.63 -0.03,2.9 0.02,3.34z"/>
   </g>
   <path class="fil0" d="M11.26 7.93c0,0 0,0 0,0z"/>
  </g>
  <path class="fil1" d="M8.37 6.64l2.98 -1.74c0.58,-0.34 1.05,0.01 1.05,0.77l0 3.14c0,0.78 -0.48,1.7 -1.06,2.04l-3.01 1.77c-0.59,0.35 -1.06,-0.01 -1.06,-0.8l0.03 -3.16c0.01,-0.78 0.49,-1.68 1.07,-2.02z"/>
 </g>
</svg>
