<?xml version="1.0" encoding="UTF-8"?>
<!DOCTYPE svg PUBLIC "-//W3C//DTD SVG 1.1//EN" "http://www.w3.org/Graphics/SVG/1.1/DTD/svg11.dtd">
<!-- Creator: CorelDRAW (OEM Version) -->
<svg xmlns="http://www.w3.org/2000/svg" xml:space="preserve" width="24px" height="24px" version="1.1" style="shape-rendering:geometricPrecision; text-rendering:geometricPrecision; image-rendering:optimizeQuality; fill-rule:evenodd; clip-rule:evenodd"
viewBox="0 0 0.79 0.79"
 xmlns:xlink="http://www.w3.org/1999/xlink"
 xmlns:xodm="http://www.corel.com/coreldraw/odm/2003">
 <defs>
  <style type="text/css">
   <![CDATA[
    .fil1 {fill:#FEFEFE}
    .fil0 {fill:#C40C2A}
   ]]>
  </style>
 </defs>
 <g id="Layer_x0020_1">
  <metadata id="CorelCorpID_0Corel-Layer"/>
  <path class="fil0" d="M0.43 0c-0.02,0 -0.13,0.04 -0.15,0.05 -0.05,0.02 -0.1,0.04 -0.14,0.05 -0.04,0.01 -0.06,0.03 -0.07,0.06 -0.02,0.01 -0.02,0.03 -0.02,0.05l-0.05 0.25c0,0.04 0,0.06 0.01,0.09 0.02,0.02 0.03,0.03 0.05,0.05l0.07 0.05c0.04,0.03 0.08,0.07 0.12,0.1l0.03 0.02c0.02,0.02 0.05,0.03 0.08,0.02 0.02,0 0.13,-0.04 0.15,-0.05 0.05,-0.02 0.1,-0.03 0.15,-0.05 0.03,-0.01 0.06,-0.03 0.07,-0.07 0.01,-0.01 0.01,-0.03 0.01,-0.04l0.05 -0.25c0,-0.04 0,-0.06 -0.01,-0.08 -0.01,-0.03 -0.03,-0.04 -0.05,-0.05 -0.02,-0.02 -0.04,-0.03 -0.06,-0.05l-0.06 -0.05c-0.01,-0.01 -0.01,-0.01 -0.02,-0.01l-0.04 -0.04c-0.03,-0.03 -0.06,-0.06 -0.12,-0.05z"/>
  <path class="fil1" d="M0.36 0.3c-0.01,0.01 -0.03,0.01 -0.06,0.01 -0.05,0.02 -0.08,0.05 -0.09,0.11 0,0.01 0,0.03 0,0.04 0.01,0.09 0.11,0.12 0.15,0.16 0.02,0.02 0.05,0.02 0.07,0.01 0.03,-0.02 0.04,-0.04 0.06,-0.05 0.05,-0.04 0.1,-0.08 0.1,-0.15 0,-0.09 -0.06,-0.12 -0.15,-0.13 0,0 -0.01,0 -0.01,0 0,0 0.01,-0.01 0.01,-0.01 0.02,-0.03 0.03,-0.06 0.04,-0.09 0,0 0.01,-0.03 0,-0.03 0,-0.01 -0.01,-0.01 -0.01,0 0,0 -0.01,0.02 -0.01,0.03 -0.01,0.03 -0.02,0.05 -0.04,0.08l-0.02 0.02 0 -0.03c0,-0.02 0,-0.05 0.01,-0.07 0,-0.03 0.01,-0.06 0.02,-0.08 0.01,-0.01 0.02,-0.02 0.01,-0.03 -0.01,-0.01 -0.03,0.02 -0.03,0.03 0,0.01 -0.01,0.02 -0.01,0.02 0,0.01 -0.01,0.02 -0.01,0.03 0,0.03 -0.01,0.05 -0.01,0.08l0 0.04c-0.01,-0.01 -0.03,-0.06 -0.04,-0.07 -0.01,-0.02 -0.01,-0.03 -0.02,-0.05 0,-0.01 0,-0.02 -0.01,-0.02 0,0 -0.01,0 -0.01,0 -0.01,0.01 0,0.01 0,0.02 0,0.01 0,0.01 0,0.02 0.01,0.01 0.01,0.02 0.02,0.04 0.01,0.02 0.02,0.04 0.03,0.06 0,0 0.01,0.01 0.01,0.01z"/>
 </g>
</svg>
